# xmcd CD database file
#
# Track frame offsets:
#	150
#	10223
#	32131
#	52557
#	83259
#	95367
#	114891
#	133046
#	150233
#	156798
#	172857
#	187250
#	207143
#	223336
#	243904
#	255603
#	276634
#	296122
#
# Disc length: 4091 seconds
#
# Revision: 0
# Processed by: cddbd v1.5PL3 Copyright (c) Steve Scherf et al.
# Submitted via: CDex 1.51
#
DISCID=ee0ff912
DTITLE=Dr. John - N'Awlinz: Dis, Dat or D'udda
DYEAR=2004
DGENRE=Jazz
TTITLE0=Quatre Parishe
TTITLE1=When the Saints Go Marching In
TTITLE2=Lay My Burden Down
TTITLE3=Marie Laveau
TTITLE4=Dear Old Southland
TTITLE5=Dis, Dat, or D'Udda
TTITLE6=Chickee La Pas
TTITLE7=The Monkey
TTITLE8=Shango Tango
TTITLE9=I Ate Up the Apple Tree
TTITLE10=Such A Much
TTITLE11=Life Is a One Way Ticket
TTITLE12=Hen Layin' Rooster
TTITLE13=Stakalee
TTITLE14=Eh Las Bas
TTITLE15=St. James Infirmury
TTITLE16=Time Marches On
TTITLE17=I'm Goin Home
EXTD=YEAR: 2004
EXTT0=
EXTT1=
EXTT2=
EXTT3=
EXTT4=
EXTT5=
EXTT6=
EXTT7=
EXTT8=
EXTT9=
EXTT10=
EXTT11=
EXTT12=
EXTT13=
EXTT14=
EXTT15=
EXTT16=
EXTT17=
PLAYORDER=
